<svg xmlns="http://www.w3.org/2000/svg" width="826.371" height="935.305" viewBox="0 0 826.371 935.305">
  <g id="Group_4935" data-name="Group 4935" transform="translate(283.471 121.541)">
    <g id="Path_8299" data-name="Path 8299" transform="translate(335.279 76.822)">
      <path id="Path_8907" data-name="Path 8907" d="M-301.314,2920.314a.726.726,0,0,1-.366-.1l-69-40.063a.731.731,0,0,1-.363-.633.731.731,0,0,1,.366-.631l68.72-39.505a.723.723,0,0,1,.726,0l68.721,39.505a.729.729,0,0,1,.366.63.73.73,0,0,1-.361.632l-68.441,40.064A.728.728,0,0,1-301.314,2920.314Zm-67.543-40.79,67.542,39.218,66.991-39.215-67.269-38.672Z" transform="translate(371.042 -2839.286)" fill="#52c7dc"/>
    </g>
    <g id="Path_8300" data-name="Path 8300" transform="translate(404 116.329)">
      <path id="Path_8908" data-name="Path 8908" d="M-276,3014.042a.729.729,0,0,1-.366-.1.725.725,0,0,1-.363-.632l.281-79.016a.725.725,0,0,1,.361-.626l68.439-40.061a.73.73,0,0,1,.73,0,.727.727,0,0,1,.367.632v79.431a.728.728,0,0,1-.364.631l-68.72,39.646A.73.73,0,0,1-276,3014.042Zm1.008-79.326-.275,77.333,67.258-38.8v-77.739Z" transform="translate(276.724 -2893.509)" fill="#52c7dc"/>
    </g>
    <g id="Path_8301" data-name="Path 8301" transform="translate(335.282 116.329)">
      <path id="Path_8909" data-name="Path 8909" d="M-301.589,3014.042a.73.73,0,0,1-.364-.1l-68.72-39.646a.729.729,0,0,1-.364-.631v-79.431a.729.729,0,0,1,.365-.631.732.732,0,0,1,.729,0l69,40.062a.727.727,0,0,1,.363.633l-.28,79.015a.727.727,0,0,1-.365.629A.728.728,0,0,1-301.589,3014.042Zm-67.992-40.8,67.268,38.809.274-77.339-67.542-39.214Z" transform="translate(371.038 -2893.509)" fill="#52c7dc"/>
    </g>
    <g id="Path_8303" data-name="Path 8303" transform="translate(472.721 -82.039)">
      <path id="Path_8911" data-name="Path 8911" d="M-181.679,2741.787a.729.729,0,0,1-.364-.1.728.728,0,0,1-.364-.631v-79.175a.73.73,0,0,1,.363-.63l68.722-39.9a.731.731,0,0,1,.729,0,.729.729,0,0,1,.365.631v79.43a.727.727,0,0,1-.364.631l-68.722,39.646A.727.727,0,0,1-181.679,2741.787Zm.729-79.483V2739.8l67.265-38.805v-77.744Z" transform="translate(182.408 -2621.253)" fill="#52c7dc"/>
    </g>
    <g id="Path_8304" data-name="Path 8304" transform="translate(404.282 -81.759)">
      <path id="Path_8912" data-name="Path 8912" d="M-207.171,2741.893a.726.726,0,0,1-.364-.1l-68.438-39.367a.73.73,0,0,1-.365-.631v-79.431a.727.727,0,0,1,.365-.631.725.725,0,0,1,.729,0l68.438,39.624a.73.73,0,0,1,.364.631v79.174a.726.726,0,0,1-.364.63A.728.728,0,0,1-207.171,2741.893Zm-67.71-40.517,66.981,38.53v-77.5l-66.981-38.779Z" transform="translate(276.338 -2621.638)" fill="#52c7dc"/>
    </g>
    <g id="Path_8308" data-name="Path 8308" transform="translate(-77.314 -2.705)">
      <path id="Path_8916" data-name="Path 8916" d="M-867.867,2811.4a.73.73,0,0,1-.367-.1l-68.722-40.063a.731.731,0,0,1-.361-.632.73.73,0,0,1,.364-.629l68.721-39.741a.726.726,0,0,1,.728,0l69,39.58a.729.729,0,0,1,.366.63.729.729,0,0,1-.361.632l-69,40.225A.728.728,0,0,1-867.867,2811.4Zm-67.271-40.79,67.271,39.218,67.544-39.377-67.543-38.743Z" transform="translate(937.317 -2730.138)" fill="#52c7dc"/>
    </g>
    <g id="Path_8309" data-name="Path 8309" transform="translate(-8.591 36.875)">
      <path id="Path_8917" data-name="Path 8917" d="M-842.267,2905.156a.729.729,0,0,1-.364-.1.728.728,0,0,1-.364-.63v-79.013a.731.731,0,0,1,.362-.63l69-40.225a.731.731,0,0,1,.732,0,.731.731,0,0,1,.364.634l-.278,79.593a.728.728,0,0,1-.364.628l-68.72,39.646A.728.728,0,0,1-842.267,2905.156Zm.729-79.323v77.333l67.265-38.807.272-77.9Z" transform="translate(842.996 -2784.46)" fill="#52c7dc"/>
    </g>
    <g id="Path_8314" data-name="Path 8314" transform="translate(-77.033 393.722)">
      <path id="Path_8922" data-name="Path 8922" d="M-867.482,3355.089a.729.729,0,0,1-.366-.1l-68.72-39.9a.73.73,0,0,1-.363-.632.73.73,0,0,1,.366-.63l68.72-39.507a.726.726,0,0,1,.726,0l68.72,39.508a.731.731,0,0,1,.366.63.732.732,0,0,1-.363.633l-68.72,39.9A.724.724,0,0,1-867.482,3355.089Zm-67.263-40.627,67.263,39.056,67.264-39.055-67.264-38.67Z" transform="translate(936.931 -3274.223)" fill="#52c7dc"/>
    </g>
    <g id="Path_8315" data-name="Path 8315" transform="translate(-8.313 433.23)">
      <path id="Path_8923" data-name="Path 8923" d="M-841.885,3448.981a.729.729,0,0,1-.364-.1.73.73,0,0,1-.364-.631v-79.176a.731.731,0,0,1,.363-.631l68.72-39.9a.729.729,0,0,1,.729,0,.728.728,0,0,1,.365.631v79.431a.73.73,0,0,1-.364.631l-68.72,39.646A.73.73,0,0,1-841.885,3448.981Zm.728-79.485v77.494l67.262-38.8v-77.744Z" transform="translate(842.614 -3328.447)" fill="#52c7dc"/>
    </g>
    <g id="Path_8323" data-name="Path 8323" transform="translate(60.404 235.139)">
      <path id="Path_8931" data-name="Path 8931" d="M-678.851,3137.438a.733.733,0,0,1-.362-.1l-68.721-39.358a.729.729,0,0,1-.367-.629.73.73,0,0,1,.361-.634l68.72-40.049a.727.727,0,0,1,.73,0l68.721,39.506a.733.733,0,0,1,.366.631.729.729,0,0,1-.363.632l-68.72,39.9A.725.725,0,0,1-678.851,3137.438Zm-67.265-40.092,67.262,38.523,67.266-39.057-67.262-38.669Z" transform="translate(748.301 -3056.572)" fill="#52c7dc"/>
    </g>
    <g id="Path_8324" data-name="Path 8324" transform="translate(129.125 274.647)">
      <path id="Path_8932" data-name="Path 8932" d="M-653.254,3231.329a.723.723,0,0,1-.364-.1.727.727,0,0,1-.364-.63v-79.176a.728.728,0,0,1,.363-.63l68.72-39.9a.729.729,0,0,1,.729,0,.73.73,0,0,1,.365.632v79.429a.727.727,0,0,1-.364.631l-68.72,39.646A.725.725,0,0,1-653.254,3231.329Zm.729-79.485v77.495l67.263-38.8v-77.743Z" transform="translate(653.983 -3110.797)" fill="#52c7dc"/>
    </g>
    <g id="Path_8325" data-name="Path 8325" transform="translate(60.404 275.188)">
      <path id="Path_8933" data-name="Path 8933" d="M-678.853,3231.528a.744.744,0,0,1-.364-.1l-68.72-39.647a.726.726,0,0,1-.364-.631v-78.886a.729.729,0,0,1,.363-.631.729.729,0,0,1,.728,0l68.72,39.359a.73.73,0,0,1,.367.632V3230.8a.729.729,0,0,1-.364.632A.742.742,0,0,1-678.853,3231.528Zm-67.991-40.795,67.262,38.8v-77.49l-67.262-38.525Z" transform="translate(748.301 -3111.538)" fill="#52c7dc"/>
    </g>
    <g id="Path_8326" data-name="Path 8326" transform="translate(-8.593 116.606)">
      <path id="Path_8934" data-name="Path 8934" d="M-773.27,2974.916a.737.737,0,0,1-.366-.1l-69-40.063a.729.729,0,0,1-.363-.632.727.727,0,0,1,.366-.63l68.719-39.507a.726.726,0,0,1,.726,0l68.721,39.507a.725.725,0,0,1,.366.628.729.729,0,0,1-.361.632l-68.442,40.063A.736.736,0,0,1-773.27,2974.916Zm-67.543-40.788,67.541,39.217,66.991-39.214-67.269-38.672Z" transform="translate(842.998 -2893.889)" fill="#52c7dc"/>
    </g>
    <g id="Path_8327" data-name="Path 8327" transform="translate(60.404 156.114)">
      <path id="Path_8935" data-name="Path 8935" d="M-747.572,3068.646a.721.721,0,0,1-.363-.1.727.727,0,0,1-.366-.632V2988.9a.729.729,0,0,1,.361-.629l68.444-40.062a.734.734,0,0,1,.729,0,.726.726,0,0,1,.367.63l.276,79.026a.729.729,0,0,1-.362.633l-68.719,40.051A.726.726,0,0,1-747.572,3068.646Zm.729-79.324v77.328l67.261-39.2-.269-77.341Z" transform="translate(748.301 -2948.113)" fill="#52c7dc"/>
    </g>
    <g id="Path_8328" data-name="Path 8328" transform="translate(-8.591 156.114)">
      <path id="Path_8936" data-name="Path 8936" d="M-773.271,3068.646a.724.724,0,0,1-.363-.1l-69-39.646a.73.73,0,0,1-.366-.631v-79.431a.729.729,0,0,1,.365-.631.735.735,0,0,1,.729,0l69,40.063a.729.729,0,0,1,.363.63v79.014a.73.73,0,0,1-.364.63A.725.725,0,0,1-773.271,3068.646Zm-68.267-40.8,67.539,38.81v-77.335l-67.539-39.217Z" transform="translate(842.996 -2948.114)" fill="#52c7dc"/>
    </g>
    <g id="Path_8329" data-name="Path 8329" transform="translate(197.843 234.859)">
      <path id="Path_8937" data-name="Path 8937" d="M-490.22,3137.218a.725.725,0,0,1-.367-.1l-68.721-40.063a.729.729,0,0,1-.361-.631.729.729,0,0,1,.366-.63l68.722-39.51a.726.726,0,0,1,.726,0l68.719,39.51a.73.73,0,0,1,.365.63.729.729,0,0,1-.361.631l-68.719,40.063A.724.724,0,0,1-490.22,3137.218Zm-67.267-40.787,67.267,39.216,67.265-39.216-67.264-38.674Z" transform="translate(559.67 -3056.187)" fill="#52c7dc"/>
    </g>
    <g id="Path_8330" data-name="Path 8330" transform="translate(266.563 274.369)">
      <path id="Path_8938" data-name="Path 8938" d="M-464.623,3230.948a.73.73,0,0,1-.364-.1.727.727,0,0,1-.364-.631v-79.013a.731.731,0,0,1,.361-.63l68.72-40.063a.728.728,0,0,1,.73,0,.729.729,0,0,1,.365.633v79.43a.726.726,0,0,1-.364.631l-68.719,39.646A.732.732,0,0,1-464.623,3230.948Zm.729-79.324v77.334l67.262-38.8v-77.742Z" transform="translate(465.352 -3110.414)" fill="#52c7dc"/>
    </g>
    <g id="Path_8331" data-name="Path 8331" transform="translate(197.845 274.369)">
      <path id="Path_8939" data-name="Path 8939" d="M-490.219,3230.948a.732.732,0,0,1-.364-.1L-559.3,3191.2a.726.726,0,0,1-.364-.631v-79.43a.729.729,0,0,1,.366-.633.733.733,0,0,1,.73,0l68.72,40.063a.731.731,0,0,1,.361.63v79.014a.728.728,0,0,1-.364.631A.73.73,0,0,1-490.219,3230.948Zm-67.991-40.8,67.263,38.8v-77.334l-67.263-39.213Z" transform="translate(559.667 -3110.414)" fill="#52c7dc"/>
    </g>
    <g id="Path_8332" data-name="Path 8332" transform="translate(266.563 353.94)">
      <path id="Path_8940" data-name="Path 8940" d="M-395.906,3300.813a.728.728,0,0,1-.368-.1l-68.72-40.226a.733.733,0,0,1-.361-.633.727.727,0,0,1,.366-.628l68.721-39.506a.729.729,0,0,1,.726,0l68.72,39.506a.729.729,0,0,1,.366.628.733.733,0,0,1-.361.633l-68.722,40.226A.728.728,0,0,1-395.906,3300.813Zm-67.268-40.949,67.268,39.375,67.269-39.375-67.268-38.671Z" transform="translate(465.354 -3219.624)" fill="#52c7dc"/>
    </g>
    <g id="Path_8333" data-name="Path 8333" transform="translate(335.282 393.446)">
      <path id="Path_8941" data-name="Path 8941" d="M-370.309,3394.378a.73.73,0,0,1-.364-.1.728.728,0,0,1-.364-.631V3314.8a.73.73,0,0,1,.361-.629l68.721-40.225a.73.73,0,0,1,.73,0,.729.729,0,0,1,.367.632V3354a.73.73,0,0,1-.364.631l-68.721,39.649A.737.737,0,0,1-370.309,3394.378Zm.729-79.162v77.172l67.264-38.808v-77.736Z" transform="translate(371.038 -3273.845)" fill="#52c7dc"/>
    </g>
    <g id="Path_8334" data-name="Path 8334" transform="translate(266.564 393.445)">
      <path id="Path_8942" data-name="Path 8942" d="M-395.9,3394.375a.733.733,0,0,1-.364-.1l-68.719-39.646a.729.729,0,0,1-.364-.631v-79.428a.728.728,0,0,1,.366-.632.725.725,0,0,1,.73,0l68.719,40.226a.729.729,0,0,1,.361.629v78.848a.727.727,0,0,1-.364.631A.727.727,0,0,1-395.9,3394.375Zm-67.99-40.795,67.262,38.8v-77.169l-67.262-39.372Z" transform="translate(465.351 -3273.843)" fill="#52c7dc"/>
    </g>
    <g id="Path_8335" data-name="Path 8335" transform="translate(198.121 -2.473)">
      <path id="Path_8943" data-name="Path 8943" d="M-489.837,2811.133a.73.73,0,0,1-.365-.1l-68.722-39.76a.729.729,0,0,1-.364-.632.727.727,0,0,1,.365-.63l68.72-39.46a.728.728,0,0,1,.726,0l68.721,39.51a.729.729,0,0,1,.366.631.728.728,0,0,1-.364.632l-68.719,39.71A.732.732,0,0,1-489.837,2811.133Zm-67.263-40.486,67.263,38.916,67.26-38.866-67.262-38.672Z" transform="translate(559.288 -2730.456)" fill="#52c7dc"/>
    </g>
    <g id="Path_8336" data-name="Path 8336" transform="translate(266.843 37.038)">
      <path id="Path_8944" data-name="Path 8944" d="M-464.24,2905.217a.725.725,0,0,1-.364-.1.728.728,0,0,1-.364-.631v-79.364a.729.729,0,0,1,.364-.631l68.719-39.713a.734.734,0,0,1,.729,0,.729.729,0,0,1,.364.631v79.432a.728.728,0,0,1-.364.631l-68.719,39.646A.728.728,0,0,1-464.24,2905.217Zm.729-79.672v77.681l67.262-38.8v-77.749Z" transform="translate(464.969 -2784.683)" fill="#52c7dc"/>
    </g>
    <g id="Path_8337" data-name="Path 8337" transform="translate(198.121 36.991)">
      <path id="Path_8945" data-name="Path 8945" d="M-489.84,2905.2a.725.725,0,0,1-.367-.1l-68.72-39.945a.728.728,0,0,1-.362-.629v-79.178a.728.728,0,0,1,.364-.631.731.731,0,0,1,.729,0l68.721,39.76a.732.732,0,0,1,.364.631v79.363a.73.73,0,0,1-.365.632A.728.728,0,0,1-489.84,2905.2Zm-67.991-41.093,67.263,39.1v-77.677l-67.263-38.916Z" transform="translate(559.288 -2784.619)" fill="#52c7dc"/>
    </g>
    <g id="Path_8338" data-name="Path 8338" transform="translate(129.679 -42.413)">
      <path id="Path_8946" data-name="Path 8946" d="M-584.053,2756.5a.724.724,0,0,1-.366-.1l-68.443-39.738a.729.729,0,0,1-.363-.63.726.726,0,0,1,.364-.63l68.444-39.665a.724.724,0,0,1,.732,0l68.718,39.943a.73.73,0,0,1,.362.632.73.73,0,0,1-.366.63l-68.72,39.459A.728.728,0,0,1-584.053,2756.5Zm-66.991-40.467,66.992,38.9,67.262-38.622-67.262-39.1Z" transform="translate(653.224 -2675.64)" fill="#52c7dc"/>
    </g>
    <g id="Path_8339" data-name="Path 8339" transform="translate(198.121 -2.469)">
      <path id="Path_8947" data-name="Path 8947" d="M-558.56,2850.488a.727.727,0,0,1-.366-.1.728.728,0,0,1-.363-.63v-79.11a.728.728,0,0,1,.365-.632l68.72-39.46a.724.724,0,0,1,.728,0,.73.73,0,0,1,.364.631v79.219a.729.729,0,0,1-.366.632l-68.72,39.351A.736.736,0,0,1-558.56,2850.488Zm.729-79.417V2848.5l67.263-38.517v-77.538Z" transform="translate(559.288 -2730.461)" fill="#52c7dc"/>
    </g>
    <g id="Path_8340" data-name="Path 8340" transform="translate(129.683 -2.747)">
      <path id="Path_8948" data-name="Path 8948" d="M-584.05,2850.454a.736.736,0,0,1-.364-.1l-68.441-39.485a.728.728,0,0,1-.364-.632v-79.43a.726.726,0,0,1,.365-.631.731.731,0,0,1,.729,0l68.44,39.739a.729.729,0,0,1,.363.631v79.177a.729.729,0,0,1-.364.631A.73.73,0,0,1-584.05,2850.454Zm-67.712-40.635,66.983,38.644v-77.5l-66.983-38.893Z" transform="translate(653.219 -2730.081)" fill="#52c7dc"/>
    </g>
    <g id="Path_8342" data-name="Path 8342" transform="translate(335.562 -81.759)">
      <path id="Path_8950" data-name="Path 8950" d="M-369.925,2742.171a.73.73,0,0,1-.364-.1.729.729,0,0,1-.364-.63v-79.016a.732.732,0,0,1,.361-.63l68.72-40.061a.725.725,0,0,1,.73,0,.73.73,0,0,1,.366.632V2701.8a.729.729,0,0,1-.364.63l-68.72,39.646A.73.73,0,0,1-369.925,2742.171Zm.729-79.325v77.335l67.262-38.805v-77.741Z" transform="translate(370.654 -2621.637)" fill="#52c7dc"/>
    </g>
    <g id="Path_8343" data-name="Path 8343" transform="translate(266.843 -81.759)">
      <path id="Path_8951" data-name="Path 8951" d="M-395.519,2742.169a.728.728,0,0,1-.365-.1l-68.722-39.781a.729.729,0,0,1-.364-.631v-79.292a.728.728,0,0,1,.366-.632.728.728,0,0,1,.73,0l68.722,40.061a.73.73,0,0,1,.361.63v79.012a.726.726,0,0,1-.365.631A.727.727,0,0,1-395.519,2742.169Zm-67.993-40.931,67.265,38.939v-77.33l-67.265-39.212Z" transform="translate(464.969 -2621.638)" fill="#52c7dc"/>
    </g>
    <g id="Path_8305" data-name="Path 8305" transform="translate(-146.033 116.468)">
      <path id="Path_8913" data-name="Path 8913" d="M-961.9,2974.864a.734.734,0,0,1-.366-.1l-69-40.063a.729.729,0,0,1-.363-.631.73.73,0,0,1,.365-.63l68.722-39.646a.73.73,0,0,1,.729,0l68.72,39.646a.728.728,0,0,1,.364.628.731.731,0,0,1-.361.631l-68.441,40.062A.721.721,0,0,1-961.9,2974.864Zm-67.545-40.788,67.544,39.217,66.993-39.215-67.269-38.81Z" transform="translate(1031.631 -2893.699)" fill="#52c7dc"/>
    </g>
    <g id="Path_8306" data-name="Path 8306" transform="translate(-77.034 156.114)">
      <path id="Path_8914" data-name="Path 8914" d="M-936.2,3068.646a.723.723,0,0,1-.364-.1.727.727,0,0,1-.365-.631V2988.9a.727.727,0,0,1,.361-.628l68.443-40.062a.731.731,0,0,1,.73,0,.727.727,0,0,1,.366.632v79.431a.729.729,0,0,1-.364.63l-68.442,39.646A.721.721,0,0,1-936.2,3068.646Zm.729-79.325v77.332l66.985-38.8v-77.74Z" transform="translate(936.931 -2948.113)" fill="#52c7dc"/>
    </g>
    <g id="Path_8307" data-name="Path 8307" transform="translate(-146.03 156.114)">
      <path id="Path_8915" data-name="Path 8915" d="M-961.9,3068.646a.723.723,0,0,1-.363-.1l-69-39.646a.728.728,0,0,1-.366-.631v-79.431a.727.727,0,0,1,.365-.631.735.735,0,0,1,.729,0l69,40.062a.73.73,0,0,1,.363.63v79.015a.73.73,0,0,1-.364.63A.726.726,0,0,1-961.9,3068.646Zm-68.271-40.8,67.542,38.81v-77.336l-67.542-39.216Z" transform="translate(1031.627 -2948.114)" fill="#52c7dc"/>
    </g>
    <g id="Path_8311" data-name="Path 8311" transform="translate(-283.471 37.315)">
      <path id="Path_8919" data-name="Path 8919" d="M-1150.533,2866.091a.733.733,0,0,1-.365-.1l-69-40.064a.729.729,0,0,1-.363-.632.729.729,0,0,1,.365-.63l68.721-39.507a.723.723,0,0,1,.726,0l68.721,39.507a.729.729,0,0,1,.366.628.733.733,0,0,1-.361.632l-68.442,40.063A.726.726,0,0,1-1150.533,2866.091Zm-67.543-40.79,67.541,39.218,66.99-39.215-67.268-38.673Z" transform="translate(1220.261 -2785.063)" fill="#52c7dc"/>
    </g>
    <g id="Path_8312" data-name="Path 8312" transform="translate(-214.75 76.822)">
      <path id="Path_8920" data-name="Path 8920" d="M-1125.214,2959.82a.728.728,0,0,1-.366-.1.73.73,0,0,1-.363-.634l.278-79.013a.731.731,0,0,1,.361-.626l68.442-40.064a.731.731,0,0,1,.73,0,.726.726,0,0,1,.367.632v79.431a.73.73,0,0,1-.365.632l-68.721,39.646A.731.731,0,0,1-1125.214,2959.82Zm1.005-79.324-.272,77.331,67.259-38.8v-77.739Z" transform="translate(1125.943 -2839.287)" fill="#52c7dc"/>
    </g>
    <g id="Path_8313" data-name="Path 8313" transform="translate(-283.469 76.822)">
      <path id="Path_8921" data-name="Path 8921" d="M-1150.81,2959.82a.731.731,0,0,1-.364-.1l-68.72-39.646a.729.729,0,0,1-.364-.631v-79.431a.725.725,0,0,1,.365-.631.726.726,0,0,1,.73,0l69,40.063a.729.729,0,0,1,.363.633l-.278,79.014a.73.73,0,0,1-.365.63A.736.736,0,0,1-1150.81,2959.82Zm-67.991-40.8,67.267,38.808.272-77.337-67.539-39.216Z" transform="translate(1220.258 -2839.286)" fill="#52c7dc"/>
    </g>
    <g id="Path_8317" data-name="Path 8317" transform="translate(-146.033 353.781)">
      <path id="Path_8925" data-name="Path 8925" d="M-961.9,3300.31a.728.728,0,0,1-.363-.1l-69-39.781a.728.728,0,0,1-.365-.632.729.729,0,0,1,.366-.631l69-39.666a.729.729,0,0,1,.729,0l68.72,39.942a.727.727,0,0,1,.362.631.727.727,0,0,1-.366.63l-68.72,39.507A.721.721,0,0,1-961.9,3300.31Zm-67.539-40.51,67.54,38.94,67.263-38.669-67.266-39.1Z" transform="translate(1031.631 -3219.405)" fill="#52c7dc"/>
    </g>
    <g id="Path_8318" data-name="Path 8318" transform="translate(-77.313 393.722)">
      <path id="Path_8926" data-name="Path 8926" d="M-936.586,3394.478a.727.727,0,0,1-.367-.1.729.729,0,0,1-.362-.633l.279-79.013a.725.725,0,0,1,.364-.627l68.721-39.784a.729.729,0,0,1,.729,0,.729.729,0,0,1,.365.632v79.408a.726.726,0,0,1-.367.632l-69,39.389A.722.722,0,0,1-936.586,3394.478Zm1.005-79.321-.273,77.335,67.538-38.554v-77.721Z" transform="translate(937.315 -3274.224)" fill="#52c7dc"/>
    </g>
    <g id="Path_8319" data-name="Path 8319" transform="translate(-146.03 393.446)">
      <path id="Path_8927" data-name="Path 8927" d="M-962.179,3394.375a.731.731,0,0,1-.364-.1l-68.72-39.646a.729.729,0,0,1-.364-.631v-79.428a.729.729,0,0,1,.364-.631.73.73,0,0,1,.728,0l69,39.784a.726.726,0,0,1,.365.633l-.277,79.291a.726.726,0,0,1-.365.629A.726.726,0,0,1-962.179,3394.375Zm-67.991-40.795,67.267,38.808.271-77.613-67.538-38.942Z" transform="translate(1031.627 -3273.844)" fill="#52c7dc"/>
    </g>
    <g id="Path_8320" data-name="Path 8320" transform="translate(-214.75 314.156)">
      <path id="Path_8928" data-name="Path 8928" d="M-1056.5,3245.9a.713.713,0,0,1-.366-.1l-68.718-39.919a.729.729,0,0,1-.363-.631.732.732,0,0,1,.366-.63l68.721-39.5a.724.724,0,0,1,.725,0l69,39.624a.725.725,0,0,1,.366.631.727.727,0,0,1-.364.631l-69,39.8A.723.723,0,0,1-1056.5,3245.9Zm-67.261-40.645,67.262,39.075,67.537-38.955-67.536-38.784Z" transform="translate(1125.944 -3165.021)" fill="#52c7dc"/>
    </g>
    <g id="Path_8321" data-name="Path 8321" transform="translate(-146.032 353.78)">
      <path id="Path_8929" data-name="Path 8929" d="M-1030.9,3339.955a.733.733,0,0,1-.365-.1.728.728,0,0,1-.364-.63v-79.3a.729.729,0,0,1,.365-.631l69-39.8a.735.735,0,0,1,.729,0,.728.728,0,0,1,.364.632v79.449a.728.728,0,0,1-.366.632l-69,39.645A.73.73,0,0,1-1030.9,3339.955Zm.729-79.6v77.617l67.542-38.808v-77.767Z" transform="translate(1031.631 -3219.405)" fill="#52c7dc"/>
    </g>
    <g id="Path_8322" data-name="Path 8322" transform="translate(-214.749 353.659)">
      <path id="Path_8930" data-name="Path 8930" d="M-1056.495,3339.907a.729.729,0,0,1-.365-.1l-68.72-39.782a.73.73,0,0,1-.363-.63v-79.43a.727.727,0,0,1,.365-.631.728.728,0,0,1,.729,0l68.72,39.783a.732.732,0,0,1,.364.631v79.427a.729.729,0,0,1-.365.632A.734.734,0,0,1-1056.495,3339.907Zm-67.991-40.931,67.262,38.938V3260.17l-67.262-38.94Z" transform="translate(1125.943 -3219.239)" fill="#52c7dc"/>
    </g>
    <g id="Path_8302" data-name="Path 8302" transform="translate(404.282 -121.541)">
      <path id="Path_8910" data-name="Path 8910" d="M-207.171,2647.9a.732.732,0,0,1-.365-.1l-68.438-39.621a.729.729,0,0,1-.364-.631.729.729,0,0,1,.362-.63l68.438-39.782a.727.727,0,0,1,.729,0l68.723,39.5a.731.731,0,0,1,.366.631.73.73,0,0,1-.363.632l-68.723,39.9A.729.729,0,0,1-207.171,2647.9Zm-66.986-40.353,66.986,38.782,67.267-39.058-67.264-38.661Z" transform="translate(276.338 -2567.038)" fill="#52c7dc"/>
    </g>
    <g id="Path_8310" data-name="Path 8310" transform="translate(-77.308 37.037)">
      <path id="Path_8918" data-name="Path 8918" d="M-867.86,2905.216a.731.731,0,0,1-.364-.1l-68.719-39.646a.729.729,0,0,1-.364-.631V2785.41a.729.729,0,0,1,.366-.632.726.726,0,0,1,.73,0l68.719,40.064a.728.728,0,0,1,.361.629v79.014a.727.727,0,0,1-.364.631A.725.725,0,0,1-867.86,2905.216Zm-67.99-40.794,67.262,38.8v-77.334l-67.262-39.213Z" transform="translate(937.308 -2784.681)" fill="#52c7dc"/>
    </g>
    <g id="Path_8316" data-name="Path 8316" transform="translate(-77.031 433.23)">
      <path id="Path_8924" data-name="Path 8924" d="M-867.482,3448.981a.734.734,0,0,1-.364-.1l-68.718-39.646a.728.728,0,0,1-.364-.631v-79.431a.726.726,0,0,1,.365-.631.731.731,0,0,1,.729,0l68.718,39.9a.73.73,0,0,1,.363.631v79.176a.729.729,0,0,1-.364.631A.729.729,0,0,1-867.482,3448.981Zm-67.99-40.8,67.261,38.8V3369.5l-67.261-39.055Z" transform="translate(936.929 -3328.448)" fill="#52c7dc"/>
    </g>
    <g id="Path_8341" data-name="Path 8341" transform="translate(266.841 -121.265)">
      <path id="Path_8949" data-name="Path 8949" d="M-395.522,2648.444a.733.733,0,0,1-.367-.1l-68.721-40.064a.731.731,0,0,1-.361-.632.727.727,0,0,1,.366-.63l68.72-39.507a.729.729,0,0,1,.726,0l68.721,39.507a.729.729,0,0,1,.366.63.732.732,0,0,1-.361.632l-68.72,40.064A.731.731,0,0,1-395.522,2648.444Zm-67.267-40.788,67.267,39.216,67.265-39.216-67.267-38.671Z" transform="translate(464.972 -2567.417)" fill="#52c7dc"/>
    </g>
    <g id="Group_4942" data-name="Group 4942" transform="translate(-38 -3)">
      <g id="Path_8314-2" data-name="Path 8314" transform="translate(-77.033 656.722)">
        <path id="Path_8922-2" data-name="Path 8922" d="M-867.482,3355.089a.729.729,0,0,1-.366-.1l-68.72-39.9a.73.73,0,0,1-.363-.632.73.73,0,0,1,.366-.63l68.72-39.507a.726.726,0,0,1,.726,0l68.72,39.508a.731.731,0,0,1,.366.63.732.732,0,0,1-.363.633l-68.72,39.9A.724.724,0,0,1-867.482,3355.089Zm-67.263-40.627,67.263,39.056,67.264-39.055-67.264-38.67Z" transform="translate(936.931 -3274.223)" fill="#52c7dc"/>
      </g>
      <g id="Path_8315-2" data-name="Path 8315" transform="translate(-8.313 696.23)">
        <path id="Path_8923-2" data-name="Path 8923" d="M-841.885,3448.981a.729.729,0,0,1-.364-.1.73.73,0,0,1-.364-.631v-79.176a.731.731,0,0,1,.363-.631l68.72-39.9a.729.729,0,0,1,.729,0,.728.728,0,0,1,.365.631v79.431a.73.73,0,0,1-.364.631l-68.72,39.646A.73.73,0,0,1-841.885,3448.981Zm.728-79.485v77.494l67.262-38.8v-77.744Z" transform="translate(842.614 -3328.447)" fill="#52c7dc"/>
      </g>
      <g id="Path_8316-2" data-name="Path 8316" transform="translate(-77.031 696.23)">
        <path id="Path_8924-2" data-name="Path 8924" d="M-867.482,3448.981a.734.734,0,0,1-.364-.1l-68.718-39.646a.728.728,0,0,1-.364-.631v-79.431a.726.726,0,0,1,.365-.631.731.731,0,0,1,.729,0l68.718,39.9a.73.73,0,0,1,.363.631v79.176a.729.729,0,0,1-.364.631A.729.729,0,0,1-867.482,3448.981Zm-67.99-40.8,67.261,38.8V3369.5l-67.261-39.055Z" transform="translate(936.929 -3328.448)" fill="#52c7dc"/>
      </g>
    </g>
  </g>
</svg>
